<mxfile host="app.diagrams.net" modified="2023-12-28T21:31:35.093Z" agent="Mozilla/5.0 (Windows NT 10.0; Win64; x64) AppleWebKit/537.36 (KHTML, like Gecko) Chrome/120.0.0.0 Safari/537.36" etag="nwaxLD5Ro8YHAEf_wZx-" version="22.1.15" type="google">
  <diagram id="6a731a19-8d31-9384-78a2-239565b7b9f0" name="Page-1">
    <mxGraphModel grid="1" page="1" gridSize="10" guides="1" tooltips="1" connect="1" arrows="1" fold="1" pageScale="1" pageWidth="1169" pageHeight="827" background="none" math="0" shadow="0">
      <root>
        <mxCell id="0" />
        <mxCell id="1" parent="0" />
        <mxCell id="WxuLui1noRnbIhzogwKD-1782" value="CSV MANUAL QUE TIENE:&lt;br&gt;- Cuenta (16 dígitos)&lt;br&gt;- Exp (la clasificación por departamento)&lt;br&gt;- Sección: El nombre de las cuentas principales tal cual aparece en el reporte excel" style="rounded=0;whiteSpace=wrap;html=1;" vertex="1" parent="1">
          <mxGeometry x="40" y="-130" width="290" height="90" as="geometry" />
        </mxCell>
        <mxCell id="2Ho_9DHRgpNyLXx4Pw03-1754" style="edgeStyle=orthogonalEdgeStyle;rounded=0;orthogonalLoop=1;jettySize=auto;html=1;exitX=0;exitY=0.5;exitDx=0;exitDy=0;" edge="1" parent="1" source="WxuLui1noRnbIhzogwKD-1783" target="2Ho_9DHRgpNyLXx4Pw03-1753">
          <mxGeometry relative="1" as="geometry" />
        </mxCell>
        <mxCell id="WxuLui1noRnbIhzogwKD-1783" value="&lt;font color=&quot;#000000&quot;&gt;MAC_&lt;/font&gt;" style="rounded=1;whiteSpace=wrap;html=1;shadow=0;labelBackgroundColor=none;strokeColor=none;strokeWidth=3;fillColor=#B5739D;fontFamily=Helvetica;fontSize=16;fontColor=#FFFFFF;align=center;fontStyle=1;spacing=5;arcSize=7;perimeterSpacing=2;" vertex="1" parent="1">
          <mxGeometry x="-220" y="160" width="210" height="70" as="geometry" />
        </mxCell>
        <mxCell id="WxuLui1noRnbIhzogwKD-1794" value="Añade los denominadores específicos" style="rounded=0;whiteSpace=wrap;html=1;" vertex="1" parent="1">
          <mxGeometry x="1142.5" y="-400" width="195" height="60" as="geometry" />
        </mxCell>
        <mxCell id="WxuLui1noRnbIhzogwKD-1799" value="&lt;b&gt;QUERYS POR CADA PESTAÑA&lt;/b&gt;" style="rounded=0;whiteSpace=wrap;html=1;fillColor=#33FF33;" vertex="1" parent="1">
          <mxGeometry x="1130" y="-470" width="220" height="60" as="geometry" />
        </mxCell>
        <mxCell id="WxuLui1noRnbIhzogwKD-1801" value="Acá ya creamos el reporte y sólo nos tenemos que preocupar por ordenar correctamente las secciones" style="rounded=0;whiteSpace=wrap;html=1;" vertex="1" parent="1">
          <mxGeometry x="1460" y="-446" width="210" height="86" as="geometry" />
        </mxCell>
        <mxCell id="WxuLui1noRnbIhzogwKD-1806" style="edgeStyle=none;rounded=0;orthogonalLoop=1;jettySize=auto;html=1;exitX=0;exitY=0.5;exitDx=0;exitDy=0;entryX=1;entryY=0.5;entryDx=0;entryDy=0;" edge="1" parent="1" source="958ozAxaEMUuKhIacC1X-1" target="WxuLui1noRnbIhzogwKD-1783">
          <mxGeometry relative="1" as="geometry" />
        </mxCell>
        <mxCell id="WxuLui1noRnbIhzogwKD-1808" style="edgeStyle=none;rounded=0;orthogonalLoop=1;jettySize=auto;html=1;exitX=0;exitY=0.5;exitDx=0;exitDy=0;entryX=1;entryY=0.5;entryDx=0;entryDy=0;" edge="1" parent="1" source="WxuLui1noRnbIhzogwKD-1807" target="2Ho_9DHRgpNyLXx4Pw03-1751">
          <mxGeometry relative="1" as="geometry">
            <mxPoint x="706" y="200" as="sourcePoint" />
            <mxPoint x="650" y="260" as="targetPoint" />
          </mxGeometry>
        </mxCell>
        <mxCell id="WxuLui1noRnbIhzogwKD-1812" style="edgeStyle=none;rounded=0;orthogonalLoop=1;jettySize=auto;html=1;exitX=0.5;exitY=1;exitDx=0;exitDy=0;entryX=0.538;entryY=0.027;entryDx=0;entryDy=0;entryPerimeter=0;" edge="1" parent="1" source="WxuLui1noRnbIhzogwKD-1807" target="WxuLui1noRnbIhzogwKD-1811">
          <mxGeometry relative="1" as="geometry" />
        </mxCell>
        <mxCell id="y9eLoY0And8_ln3ibi9P-3" style="edgeStyle=none;rounded=0;orthogonalLoop=1;jettySize=auto;html=1;exitX=0;exitY=1;exitDx=0;exitDy=0;entryX=1;entryY=0;entryDx=0;entryDy=0;" edge="1" parent="1" source="WxuLui1noRnbIhzogwKD-1807" target="y9eLoY0And8_ln3ibi9P-1">
          <mxGeometry relative="1" as="geometry" />
        </mxCell>
        <mxCell id="WxuLui1noRnbIhzogwKD-1807" value="&lt;font color=&quot;#000000&quot;&gt;CatalogoChevroletpaso_comparativos&lt;/font&gt;" style="rounded=1;whiteSpace=wrap;html=1;shadow=0;labelBackgroundColor=none;strokeColor=none;strokeWidth=3;fillColor=#B5739D;fontFamily=Helvetica;fontSize=16;fontColor=#FFFFFF;align=center;fontStyle=1;spacing=5;arcSize=7;perimeterSpacing=2;" vertex="1" parent="1">
          <mxGeometry x="730" y="90" width="310" height="70" as="geometry" />
        </mxCell>
        <mxCell id="WxuLui1noRnbIhzogwKD-1809" value="UNE LA MAC con el Catálogo, hace match con las cuentasy agrupa los conceptos generales a los subtotales del reporte" style="rounded=0;whiteSpace=wrap;html=1;" vertex="1" parent="1">
          <mxGeometry x="430" y="-160" width="225" height="90" as="geometry" />
        </mxCell>
        <mxCell id="WxuLui1noRnbIhzogwKD-1810" value="Añade la estructura de los comparativos Mes Seleciconado, Mes Previo y Acumulado anual&lt;br&gt;También hace match con el directorio" style="rounded=0;whiteSpace=wrap;html=1;" vertex="1" parent="1">
          <mxGeometry x="760" y="-20" width="230" height="90" as="geometry" />
        </mxCell>
        <mxCell id="WxuLui1noRnbIhzogwKD-1811" value="&lt;font color=&quot;#000000&quot;&gt;Directorio&lt;/font&gt;" style="rounded=1;whiteSpace=wrap;html=1;shadow=0;labelBackgroundColor=none;strokeColor=none;strokeWidth=3;fillColor=#FFD966;fontFamily=Helvetica;fontSize=16;fontColor=#FFFFFF;align=center;fontStyle=1;spacing=5;arcSize=7;perimeterSpacing=2;" vertex="1" parent="1">
          <mxGeometry x="750" y="190" width="250" height="70" as="geometry" />
        </mxCell>
        <mxCell id="WxuLui1noRnbIhzogwKD-1813" value="Para los subtotales hay que hacer un filtro WHERE del departamento correspondiente porque algunos nombres de secciones se repiten entre diferentes deprtamentos&lt;br&gt;&lt;b&gt;Aquí hay que añadir las cuentas de cada depa&lt;/b&gt;" style="rounded=0;whiteSpace=wrap;html=1;" vertex="1" parent="1">
          <mxGeometry x="430" y="-60" width="225" height="130" as="geometry" />
        </mxCell>
        <mxCell id="WxuLui1noRnbIhzogwKD-1816" style="edgeStyle=none;rounded=0;orthogonalLoop=1;jettySize=auto;html=1;exitX=0;exitY=0.5;exitDx=0;exitDy=0;entryX=1;entryY=0.5;entryDx=0;entryDy=0;" edge="1" parent="1" source="WxuLui1noRnbIhzogwKD-1814" target="WxuLui1noRnbIhzogwKD-1807">
          <mxGeometry relative="1" as="geometry" />
        </mxCell>
        <mxCell id="WxuLui1noRnbIhzogwKD-1814" value="&lt;font color=&quot;#000000&quot;&gt;CatalogoChevrolet_VN2&lt;/font&gt;" style="rounded=1;whiteSpace=wrap;html=1;shadow=0;labelBackgroundColor=none;strokeColor=none;strokeWidth=3;fillColor=#B5739D;fontFamily=Helvetica;fontSize=16;fontColor=#FFFFFF;align=center;fontStyle=1;spacing=5;arcSize=7;perimeterSpacing=2;" vertex="1" parent="1">
          <mxGeometry x="1120" y="90" width="250" height="70" as="geometry" />
        </mxCell>
        <mxCell id="WxuLui1noRnbIhzogwKD-1817" style="edgeStyle=none;rounded=0;orthogonalLoop=1;jettySize=auto;html=1;exitX=0;exitY=0.5;exitDx=0;exitDy=0;entryX=1;entryY=0.5;entryDx=0;entryDy=0;" edge="1" parent="1" source="WxuLui1noRnbIhzogwKD-1815" target="WxuLui1noRnbIhzogwKD-1814">
          <mxGeometry relative="1" as="geometry" />
        </mxCell>
        <mxCell id="WxuLui1noRnbIhzogwKD-1815" value="&lt;font color=&quot;#000000&quot;&gt;Exp. VN2&lt;/font&gt;" style="rounded=1;whiteSpace=wrap;html=1;shadow=0;labelBackgroundColor=none;strokeColor=none;strokeWidth=3;fillColor=#99FF99;fontFamily=Helvetica;fontSize=16;fontColor=#FFFFFF;align=center;fontStyle=1;spacing=5;arcSize=7;perimeterSpacing=2;" vertex="1" parent="1">
          <mxGeometry x="1450" y="90" width="250" height="70" as="geometry" />
        </mxCell>
        <mxCell id="WxuLui1noRnbIhzogwKD-1821" style="edgeStyle=none;rounded=0;orthogonalLoop=1;jettySize=auto;html=1;exitX=0;exitY=0.5;exitDx=0;exitDy=0;entryX=1;entryY=0.5;entryDx=0;entryDy=0;" edge="1" parent="1" source="WxuLui1noRnbIhzogwKD-1818" target="WxuLui1noRnbIhzogwKD-1819">
          <mxGeometry relative="1" as="geometry" />
        </mxCell>
        <mxCell id="WxuLui1noRnbIhzogwKD-1818" value="&lt;font color=&quot;#000000&quot;&gt;Síntesis&lt;/font&gt;" style="rounded=1;whiteSpace=wrap;html=1;shadow=0;labelBackgroundColor=none;strokeColor=none;strokeWidth=3;fillColor=#99FF99;fontFamily=Helvetica;fontSize=16;fontColor=#FFFFFF;align=center;fontStyle=1;spacing=5;arcSize=7;perimeterSpacing=2;" vertex="1" parent="1">
          <mxGeometry x="1460" y="414" width="250" height="70" as="geometry" />
        </mxCell>
        <mxCell id="WxuLui1noRnbIhzogwKD-1820" style="edgeStyle=none;rounded=0;orthogonalLoop=1;jettySize=auto;html=1;entryX=0.942;entryY=0.97;entryDx=0;entryDy=0;entryPerimeter=0;exitX=0.803;exitY=0.008;exitDx=0;exitDy=0;exitPerimeter=0;" edge="1" parent="1" source="WxuLui1noRnbIhzogwKD-1822" target="WxuLui1noRnbIhzogwKD-1807">
          <mxGeometry relative="1" as="geometry">
            <mxPoint x="810" y="440" as="sourcePoint" />
          </mxGeometry>
        </mxCell>
        <mxCell id="WxuLui1noRnbIhzogwKD-1823" style="edgeStyle=none;rounded=0;orthogonalLoop=1;jettySize=auto;html=1;exitX=0;exitY=0.5;exitDx=0;exitDy=0;entryX=1;entryY=0.5;entryDx=0;entryDy=0;" edge="1" parent="1" source="WxuLui1noRnbIhzogwKD-1819" target="WxuLui1noRnbIhzogwKD-1822">
          <mxGeometry relative="1" as="geometry" />
        </mxCell>
        <mxCell id="WxuLui1noRnbIhzogwKD-1819" value="&lt;font color=&quot;#000000&quot;&gt;CatalogoChevroletSintesis_&lt;/font&gt;" style="rounded=1;whiteSpace=wrap;html=1;shadow=0;labelBackgroundColor=none;strokeColor=none;strokeWidth=3;fillColor=#B5739D;fontFamily=Helvetica;fontSize=16;fontColor=#FFFFFF;align=center;fontStyle=1;spacing=5;arcSize=7;perimeterSpacing=2;" vertex="1" parent="1">
          <mxGeometry x="1120" y="414" width="250" height="70" as="geometry" />
        </mxCell>
        <mxCell id="WxuLui1noRnbIhzogwKD-1822" value="&lt;font color=&quot;#000000&quot;&gt;CatalogoChevroletSintesis_paso&lt;/font&gt;" style="rounded=1;whiteSpace=wrap;html=1;shadow=0;labelBackgroundColor=none;strokeColor=none;strokeWidth=3;fillColor=#B5739D;fontFamily=Helvetica;fontSize=16;fontColor=#FFFFFF;align=center;fontStyle=1;spacing=5;arcSize=7;perimeterSpacing=2;" vertex="1" parent="1">
          <mxGeometry x="810" y="414" width="270" height="70" as="geometry" />
        </mxCell>
        <mxCell id="WxuLui1noRnbIhzogwKD-1824" value="Misma idea de CatalogoChevroletpaso_grupos pero ahora con los subtotales que hay en síntesis y con los conceptos que deben salir de la primera agrupación que ya hicimos" style="rounded=0;whiteSpace=wrap;html=1;" vertex="1" parent="1">
          <mxGeometry x="840" y="490" width="230" height="130" as="geometry" />
        </mxCell>
        <mxCell id="WxuLui1noRnbIhzogwKD-1825" value="Misma idea de añadir los denominadores para cada departamento (pero acá no haremos varias querys, sólo una)" style="rounded=0;whiteSpace=wrap;html=1;" vertex="1" parent="1">
          <mxGeometry x="1130" y="490" width="230" height="130" as="geometry" />
        </mxCell>
        <mxCell id="WxuLui1noRnbIhzogwKD-1826" value="Hay que usar el WHERE = Exp correspondiente, por si se repite algún nombre" style="rounded=0;whiteSpace=wrap;html=1;" vertex="1" parent="1">
          <mxGeometry x="840" y="630" width="230" height="90" as="geometry" />
        </mxCell>
        <mxCell id="WxuLui1noRnbIhzogwKD-1829" style="edgeStyle=none;rounded=0;orthogonalLoop=1;jettySize=auto;html=1;exitX=0;exitY=0.5;exitDx=0;exitDy=0;entryX=1;entryY=0.25;entryDx=0;entryDy=0;" edge="1" parent="1" source="WxuLui1noRnbIhzogwKD-1827" target="WxuLui1noRnbIhzogwKD-1807">
          <mxGeometry relative="1" as="geometry" />
        </mxCell>
        <mxCell id="WxuLui1noRnbIhzogwKD-1827" value="&lt;font color=&quot;#000000&quot;&gt;CatalogoChevrolet_VSN&lt;/font&gt;" style="rounded=1;whiteSpace=wrap;html=1;shadow=0;labelBackgroundColor=none;strokeColor=none;strokeWidth=3;fillColor=#B5739D;fontFamily=Helvetica;fontSize=16;fontColor=#FFFFFF;align=center;fontStyle=1;spacing=5;arcSize=7;perimeterSpacing=2;" vertex="1" parent="1">
          <mxGeometry x="1120" y="-20" width="250" height="70" as="geometry" />
        </mxCell>
        <mxCell id="WxuLui1noRnbIhzogwKD-1831" style="edgeStyle=none;rounded=0;orthogonalLoop=1;jettySize=auto;html=1;exitX=0;exitY=0.5;exitDx=0;exitDy=0;" edge="1" parent="1" source="WxuLui1noRnbIhzogwKD-1830" target="WxuLui1noRnbIhzogwKD-1827">
          <mxGeometry relative="1" as="geometry" />
        </mxCell>
        <mxCell id="WxuLui1noRnbIhzogwKD-1830" value="&lt;font color=&quot;#000000&quot;&gt;Exp. VSN&lt;/font&gt;" style="rounded=1;whiteSpace=wrap;html=1;shadow=0;labelBackgroundColor=none;strokeColor=none;strokeWidth=3;fillColor=#99FF99;fontFamily=Helvetica;fontSize=16;fontColor=#FFFFFF;align=center;fontStyle=1;spacing=5;arcSize=7;perimeterSpacing=2;" vertex="1" parent="1">
          <mxGeometry x="1450" y="-20" width="250" height="70" as="geometry" />
        </mxCell>
        <mxCell id="WxuLui1noRnbIhzogwKD-1833" style="edgeStyle=none;rounded=0;orthogonalLoop=1;jettySize=auto;html=1;exitX=0;exitY=0.5;exitDx=0;exitDy=0;entryX=1;entryY=0;entryDx=0;entryDy=0;" edge="1" parent="1" source="WxuLui1noRnbIhzogwKD-1832" target="WxuLui1noRnbIhzogwKD-1807">
          <mxGeometry relative="1" as="geometry" />
        </mxCell>
        <mxCell id="WxuLui1noRnbIhzogwKD-1832" value="&lt;font color=&quot;#000000&quot;&gt;CatalogoChevrolet_P&amp;amp;A&lt;/font&gt;" style="rounded=1;whiteSpace=wrap;html=1;shadow=0;labelBackgroundColor=none;strokeColor=none;strokeWidth=3;fillColor=#B5739D;fontFamily=Helvetica;fontSize=16;fontColor=#FFFFFF;align=center;fontStyle=1;spacing=5;arcSize=7;perimeterSpacing=2;" vertex="1" parent="1">
          <mxGeometry x="1120" y="-130" width="250" height="70" as="geometry" />
        </mxCell>
        <mxCell id="WxuLui1noRnbIhzogwKD-1835" style="edgeStyle=none;rounded=0;orthogonalLoop=1;jettySize=auto;html=1;exitX=0;exitY=0.5;exitDx=0;exitDy=0;entryX=1;entryY=0.5;entryDx=0;entryDy=0;" edge="1" parent="1" source="WxuLui1noRnbIhzogwKD-1834" target="WxuLui1noRnbIhzogwKD-1832">
          <mxGeometry relative="1" as="geometry" />
        </mxCell>
        <mxCell id="WxuLui1noRnbIhzogwKD-1834" value="&lt;font color=&quot;#000000&quot;&gt;Exp. P&amp;amp;A&lt;/font&gt;" style="rounded=1;whiteSpace=wrap;html=1;shadow=0;labelBackgroundColor=none;strokeColor=none;strokeWidth=3;fillColor=#99FF99;fontFamily=Helvetica;fontSize=16;fontColor=#FFFFFF;align=center;fontStyle=1;spacing=5;arcSize=7;perimeterSpacing=2;" vertex="1" parent="1">
          <mxGeometry x="1450" y="-130" width="250" height="70" as="geometry" />
        </mxCell>
        <mxCell id="003Md4qoPg5A_9__orxn-1751" style="rounded=0;orthogonalLoop=1;jettySize=auto;html=1;exitX=0;exitY=0.5;exitDx=0;exitDy=0;entryX=0.968;entryY=0.012;entryDx=0;entryDy=0;entryPerimeter=0;" edge="1" parent="1" source="003Md4qoPg5A_9__orxn-1749" target="WxuLui1noRnbIhzogwKD-1807">
          <mxGeometry relative="1" as="geometry" />
        </mxCell>
        <mxCell id="003Md4qoPg5A_9__orxn-1749" value="&lt;font color=&quot;#000000&quot;&gt;CatalogoChevrolet_Taller&lt;/font&gt;" style="rounded=1;whiteSpace=wrap;html=1;shadow=0;labelBackgroundColor=none;strokeColor=none;strokeWidth=3;fillColor=#B5739D;fontFamily=Helvetica;fontSize=16;fontColor=#FFFFFF;align=center;fontStyle=1;spacing=5;arcSize=7;perimeterSpacing=2;" vertex="1" parent="1">
          <mxGeometry x="1120" y="-230" width="250" height="70" as="geometry" />
        </mxCell>
        <mxCell id="003Md4qoPg5A_9__orxn-1754" style="edgeStyle=none;rounded=0;orthogonalLoop=1;jettySize=auto;html=1;exitX=0;exitY=0.5;exitDx=0;exitDy=0;entryX=0.922;entryY=0.069;entryDx=0;entryDy=0;entryPerimeter=0;" edge="1" parent="1" source="003Md4qoPg5A_9__orxn-1750" target="WxuLui1noRnbIhzogwKD-1807">
          <mxGeometry relative="1" as="geometry" />
        </mxCell>
        <mxCell id="003Md4qoPg5A_9__orxn-1750" value="&lt;font color=&quot;#000000&quot;&gt;CatalogoChevrolet_Comun&lt;/font&gt;" style="rounded=1;whiteSpace=wrap;html=1;shadow=0;labelBackgroundColor=none;strokeColor=none;strokeWidth=3;fillColor=#B5739D;fontFamily=Helvetica;fontSize=16;fontColor=#FFFFFF;align=center;fontStyle=1;spacing=5;arcSize=7;perimeterSpacing=2;" vertex="1" parent="1">
          <mxGeometry x="1120" y="-320" width="250" height="70" as="geometry" />
        </mxCell>
        <mxCell id="003Md4qoPg5A_9__orxn-1756" style="edgeStyle=none;rounded=0;orthogonalLoop=1;jettySize=auto;html=1;exitX=0;exitY=0.5;exitDx=0;exitDy=0;entryX=1;entryY=0.5;entryDx=0;entryDy=0;" edge="1" parent="1" source="003Md4qoPg5A_9__orxn-1755" target="003Md4qoPg5A_9__orxn-1749">
          <mxGeometry relative="1" as="geometry" />
        </mxCell>
        <mxCell id="003Md4qoPg5A_9__orxn-1755" value="&lt;font color=&quot;#000000&quot;&gt;Exp. Taller&lt;/font&gt;" style="rounded=1;whiteSpace=wrap;html=1;shadow=0;labelBackgroundColor=none;strokeColor=none;strokeWidth=3;fillColor=#99FF99;fontFamily=Helvetica;fontSize=16;fontColor=#FFFFFF;align=center;fontStyle=1;spacing=5;arcSize=7;perimeterSpacing=2;" vertex="1" parent="1">
          <mxGeometry x="1450" y="-230" width="250" height="70" as="geometry" />
        </mxCell>
        <mxCell id="003Md4qoPg5A_9__orxn-1758" value="" style="edgeStyle=none;rounded=0;orthogonalLoop=1;jettySize=auto;html=1;" edge="1" parent="1" source="003Md4qoPg5A_9__orxn-1757" target="003Md4qoPg5A_9__orxn-1750">
          <mxGeometry relative="1" as="geometry" />
        </mxCell>
        <mxCell id="003Md4qoPg5A_9__orxn-1757" value="&lt;font color=&quot;#000000&quot;&gt;Exp. Comun&lt;/font&gt;" style="rounded=1;whiteSpace=wrap;html=1;shadow=0;labelBackgroundColor=none;strokeColor=none;strokeWidth=3;fillColor=#99FF99;fontFamily=Helvetica;fontSize=16;fontColor=#FFFFFF;align=center;fontStyle=1;spacing=5;arcSize=7;perimeterSpacing=2;" vertex="1" parent="1">
          <mxGeometry x="1450" y="-320" width="250" height="70" as="geometry" />
        </mxCell>
        <mxCell id="2Ho_9DHRgpNyLXx4Pw03-1749" value="&lt;font color=&quot;#000000&quot;&gt;Catalogo_Cuentas&lt;/font&gt;" style="rounded=1;whiteSpace=wrap;html=1;shadow=0;labelBackgroundColor=none;strokeColor=none;strokeWidth=3;fillColor=#FFD966;fontFamily=Helvetica;fontSize=16;fontColor=#FFFFFF;align=center;fontStyle=1;spacing=5;arcSize=7;perimeterSpacing=2;" vertex="1" parent="1">
          <mxGeometry x="60" y="-30" width="250" height="70" as="geometry" />
        </mxCell>
        <mxCell id="2Ho_9DHRgpNyLXx4Pw03-1755" style="rounded=0;orthogonalLoop=1;jettySize=auto;html=1;exitX=0;exitY=0.5;exitDx=0;exitDy=0;entryX=1;entryY=0.5;entryDx=0;entryDy=0;" edge="1" parent="1" source="2Ho_9DHRgpNyLXx4Pw03-1751" target="2Ho_9DHRgpNyLXx4Pw03-1749">
          <mxGeometry relative="1" as="geometry" />
        </mxCell>
        <mxCell id="2Ho_9DHRgpNyLXx4Pw03-1751" value="&lt;font color=&quot;#000000&quot;&gt;CatalogoChevroletpaso_grupos2&lt;/font&gt;" style="rounded=1;whiteSpace=wrap;html=1;shadow=0;labelBackgroundColor=none;strokeColor=none;strokeWidth=3;fillColor=#B5739D;fontFamily=Helvetica;fontSize=16;fontColor=#FFFFFF;align=center;fontStyle=1;spacing=5;arcSize=7;perimeterSpacing=2;" vertex="1" parent="1">
          <mxGeometry x="410" y="90" width="270" height="70" as="geometry" />
        </mxCell>
        <mxCell id="2Ho_9DHRgpNyLXx4Pw03-1753" value="&lt;font color=&quot;#000000&quot;&gt;MAC&lt;/font&gt;" style="rounded=1;whiteSpace=wrap;html=1;shadow=0;labelBackgroundColor=none;strokeColor=none;strokeWidth=3;fillColor=#FFD966;fontFamily=Helvetica;fontSize=16;fontColor=#FFFFFF;align=center;fontStyle=1;spacing=5;arcSize=7;perimeterSpacing=2;" vertex="1" parent="1">
          <mxGeometry x="-470" y="160" width="170" height="70" as="geometry" />
        </mxCell>
        <mxCell id="958ozAxaEMUuKhIacC1X-1" value="&lt;font color=&quot;#000000&quot;&gt;MAC_filtrada&lt;/font&gt;" style="rounded=1;whiteSpace=wrap;html=1;shadow=0;labelBackgroundColor=none;strokeColor=none;strokeWidth=3;fillColor=#B5739D;fontFamily=Helvetica;fontSize=16;fontColor=#FFFFFF;align=center;fontStyle=1;spacing=5;arcSize=7;perimeterSpacing=2;" vertex="1" parent="1">
          <mxGeometry x="55" y="160" width="250" height="70" as="geometry" />
        </mxCell>
        <mxCell id="958ozAxaEMUuKhIacC1X-2" style="edgeStyle=none;rounded=0;orthogonalLoop=1;jettySize=auto;html=1;exitX=0;exitY=0.5;exitDx=0;exitDy=0;entryX=1;entryY=0.5;entryDx=0;entryDy=0;" edge="1" parent="1" source="2Ho_9DHRgpNyLXx4Pw03-1751" target="958ozAxaEMUuKhIacC1X-1">
          <mxGeometry relative="1" as="geometry">
            <mxPoint x="676" y="300" as="sourcePoint" />
            <mxPoint x="330" y="280" as="targetPoint" />
          </mxGeometry>
        </mxCell>
        <mxCell id="958ozAxaEMUuKhIacC1X-3" value="Tabla creada para solucionar un problema de duplicados que venía de las sucursales" style="rounded=0;whiteSpace=wrap;html=1;" vertex="1" parent="1">
          <mxGeometry x="50" y="240" width="260" height="70" as="geometry" />
        </mxCell>
        <mxCell id="ZhD1otTenKRfIx2nE8DE-2" value="&lt;font color=&quot;#000000&quot;&gt;RelacionCuentasBranch&lt;/font&gt;" style="rounded=1;whiteSpace=wrap;html=1;shadow=0;labelBackgroundColor=none;strokeColor=none;strokeWidth=3;fillColor=#FFD966;fontFamily=Helvetica;fontSize=16;fontColor=#FFFFFF;align=center;fontStyle=1;spacing=5;arcSize=7;perimeterSpacing=2;" vertex="1" parent="1">
          <mxGeometry x="-250" y="280" width="250" height="70" as="geometry" />
        </mxCell>
        <mxCell id="ZhD1otTenKRfIx2nE8DE-3" style="edgeStyle=none;rounded=0;orthogonalLoop=1;jettySize=auto;html=1;exitX=0;exitY=0.5;exitDx=0;exitDy=0;entryX=0.975;entryY=0.018;entryDx=0;entryDy=0;entryPerimeter=0;" edge="1" parent="1" source="958ozAxaEMUuKhIacC1X-1" target="ZhD1otTenKRfIx2nE8DE-2">
          <mxGeometry relative="1" as="geometry" />
        </mxCell>
        <mxCell id="ZhD1otTenKRfIx2nE8DE-4" value="Marca y sucursal asociada con su terminación" style="rounded=0;whiteSpace=wrap;html=1;" vertex="1" parent="1">
          <mxGeometry x="-255" y="360" width="260" height="70" as="geometry" />
        </mxCell>
        <mxCell id="y9eLoY0And8_ln3ibi9P-4" style="edgeStyle=none;rounded=0;orthogonalLoop=1;jettySize=auto;html=1;exitX=0;exitY=0;exitDx=0;exitDy=0;entryX=1;entryY=1;entryDx=0;entryDy=0;" edge="1" parent="1" source="y9eLoY0And8_ln3ibi9P-1" target="2Ho_9DHRgpNyLXx4Pw03-1749">
          <mxGeometry relative="1" as="geometry" />
        </mxCell>
        <mxCell id="y9eLoY0And8_ln3ibi9P-5" style="edgeStyle=none;rounded=0;orthogonalLoop=1;jettySize=auto;html=1;exitX=1;exitY=0.5;exitDx=0;exitDy=0;entryX=0.5;entryY=1;entryDx=0;entryDy=0;" edge="1" parent="1" source="y9eLoY0And8_ln3ibi9P-1" target="WxuLui1noRnbIhzogwKD-1811">
          <mxGeometry relative="1" as="geometry" />
        </mxCell>
        <mxCell id="y9eLoY0And8_ln3ibi9P-1" value="&lt;font color=&quot;#000000&quot;&gt;catalogo_vacios_2&lt;/font&gt;" style="rounded=1;whiteSpace=wrap;html=1;shadow=0;labelBackgroundColor=none;strokeColor=none;strokeWidth=3;fillColor=#FF0000;fontFamily=Helvetica;fontSize=16;fontColor=#FFFFFF;align=center;fontStyle=1;spacing=5;arcSize=7;perimeterSpacing=2;" vertex="1" parent="1">
          <mxGeometry x="420" y="290" width="270" height="70" as="geometry" />
        </mxCell>
        <mxCell id="y9eLoY0And8_ln3ibi9P-2" style="edgeStyle=none;rounded=0;orthogonalLoop=1;jettySize=auto;html=1;exitX=0.5;exitY=0;exitDx=0;exitDy=0;entryX=0.536;entryY=0.973;entryDx=0;entryDy=0;entryPerimeter=0;" edge="1" parent="1" source="y9eLoY0And8_ln3ibi9P-1" target="2Ho_9DHRgpNyLXx4Pw03-1751">
          <mxGeometry relative="1" as="geometry" />
        </mxCell>
      </root>
    </mxGraphModel>
  </diagram>
</mxfile>
